<svg xmlns="http://www.w3.org/2000/svg" xml:space="preserve" viewBox="0 0 1200 120">
  <path d="M636.5 2.8C624.7 1.5 612.4.8 600 .9c-13.6 0-26.6.7-36.5 1.9L0 73.3v5.4L568.7 7.6c8.2-1 19.6-1.6 31.3-1.6 11.8 0 23.3.6 31.3 1.6L1200 78.7v-5.5L636.5 2.8z"/>
  <path d="m1190.9 90.6-560.5-70c-20.3-2.2-42-2.2-62.3 0L7.9 90.6C4.6 91 2 91.5 0 92v28l1200-.1V92.3c-2.4-.6-5.4-1.2-9.3-1.7h.2zM41.5 104.2l-4-3.6 41.9-5.2 3.9 3.6-41.8 5.2zM139.2 92l-4-3.6 41.9-5.2 3.9 3.6-41.8 5.2zm97.7-12.2-3.9-3.6 41.8-5.2 3.9 3.6-41.8 5.2zm97.7-12.3-3.9-3.6 41.9-5.2 3.9 3.6-41.9 5.2zm97.8-12.1-3.9-3.6 41.8-5.2 3.9 3.6-41.8 5.2zM530 43.1l-3.9-3.6 41.8-5.2 3.9 3.6-41.8 5.2zm138.3 0-41.8-5.2 3.8-3.6 41.8 5.2-3.8 3.6zm97.8 12.3-41.8-5.2 3.9-3.6 41.8 5.2-3.9 3.6zm97.7 12.1L822 62.3l3.8-3.6 41.8 5.2-3.8 3.6zm97.8 12.3-41.8-5.2 3.8-3.6 41.8 5.2-3.8 3.6zm97.7 12.2-41.8-5.2 3.9-3.6 41.8 5.2-3.9 3.6zm97.8 12.2-41.8-5.2 3.9-3.6 41.8 5.2-3.9 3.6z"/>
</svg>