<svg xmlns="http://www.w3.org/2000/svg" xml:space="preserve" viewBox="0 0 1200 120">
  <path d="M1190.9 85.1 630.5 1.9c-20.3-2.6-42-2.6-62.3 0L7.9 85.1c-3.3.5-5.9 1-7.9 1.6V120l1200-.1V87.1c-2.4-.7-5.4-1.4-9.3-2h.2zM41.5 101.2l-4-4.3 41.9-6.2 3.9 4.3-41.8 6.2zm97.7-14.5-4-4.3 41.9-6.2 3.9 4.3-41.8 6.2zm97.7-14.5-3.9-4.3 41.8-6.2 3.9 4.3-41.8 6.2zm97.7-14.5-3.9-4.3 41.9-6.2 3.9 4.3-41.9 6.2zm97.8-14.5-3.9-4.3 41.8-6.2 3.9 4.3-41.8 6.2zM530 28.7l-3.9-4.3 41.8-6.2 3.9 4.3-41.8 6.2zm138.3 0-41.8-6.2 3.8-4.3 41.8 6.2-3.8 4.3zm97.8 14.5L724.3 37l3.9-4.3 41.8 6.2-3.9 4.3zm97.7 14.5L822 51.5l3.8-4.3 41.8 6.2-3.8 4.3zm97.8 14.5L919.7 66l3.8-4.3 41.8 6.2-3.7 4.3zm97.7 14.5-41.8-6.2 3.9-4.3 41.8 6.2-3.9 4.3zm97.8 14.5-41.8-6.2 3.9-4.3 41.8 6.2-3.9 4.3z"/>
</svg>