<?xml version="1.0" encoding="utf-8"?>
<!-- Generator: Adobe Illustrator 27.2.0, SVG Export Plug-In . SVG Version: 6.00 Build 0)  -->
<svg version="1.1" id="Layer_1" xmlns="http://www.w3.org/2000/svg" xmlns:xlink="http://www.w3.org/1999/xlink" x="0px" y="0px"
	 viewBox="0 0 512 512" style="enable-background:new 0 0 512 512;" xml:space="preserve">
<style type="text/css">
	.st0{fill:none;}
</style>
<g>
	<path class="st0" d="M328.5,307.4c-4.9,4.9-10.8,8.6-17.3,10.8c-3.6,1.3-7.4,1.9-11.4,1.9h-6.1V125.2c0-3.7,0.6-7.1,1.9-10.3
		c1.3-3.1,2.6-5.9,4.1-8.1c1.7-2.8,3.9-5.4,6.3-7.3h-67c3.1,1.9,5.6,4.6,7.3,7.7c3.4,6.1,4.9,13.1,4.3,20.1
		c-0.3,3.5-0.9,6.4-2.2,8.6h0.1l-95.8,184.3V363h98v22.2c0,3.8-0.7,7.2-2.1,10.3c-2.9,6.2-6.6,12-11.2,17.1h69.8
		c-5.1-4.7-9-10.6-11.4-17.1c-1.2-3.4-1.9-7.2-1.9-11.1V363h7.3c3.5,0,6.9,0.7,10.1,2.1c3.2,1.4,6.1,2.8,8.7,4.3
		c3.1,1.7,5.9,3.7,8.5,5.9V307.4z M250.6,320.2h-53l53-103V320.2z"/>
	<path d="M495.8,118.2L269.1,3.1c-8.2-4.2-17.9-4.2-26.2,0L16.2,118.2C6.5,123.1,0.4,133.1,0.4,144v224c0,10.9,6.1,20.8,15.8,25.8
		l226.7,115.1c8.2,4.2,17.9,4.2,26.2,0l226.7-115.1c9.7-4.9,15.8-14.9,15.8-25.8V144C511.6,133.1,505.5,123.1,495.8,118.2z
		 M311.3,365.1c-3.2-1.4-6.6-2.1-10.1-2.1h-7.3v21.4c0,3.9,0.7,7.7,1.9,11.1c2.4,6.5,6.3,12.4,11.4,17.1h-69.8
		c4.6-5.1,8.3-10.9,11.2-17.1c1.4-3.1,2.1-6.5,2.1-10.3V363h-98v-42.8l95.8-184.3h-0.1c1.3-2.2,1.9-5.1,2.2-8.6
		c0.6-7-0.9-14-4.3-20.1c-1.7-3.1-4.2-5.8-7.3-7.7h67c-2.4,1.9-4.6,4.5-6.3,7.3c-1.5,2.2-2.8,5-4.1,8.1c-1.3,3.2-1.9,6.6-1.9,10.3
		v194.9h6.1c4,0,7.8-0.6,11.4-1.9c6.5-2.2,12.4-5.9,17.3-10.8v67.9c-2.6-2.3-5.4-4.2-8.5-5.9C317.4,367.9,314.5,366.5,311.3,365.1z"
		/>
	<polygon points="250.6,320.2 250.6,217.2 197.6,320.2 	"/>
</g>
</svg>
