<svg xmlns="http://www.w3.org/2000/svg" xml:space="preserve" viewBox="0 0 512 512">
  <path fill="#2f2f2f" d="M495.8 118.2 269.1 3.1c-8.2-4.2-17.9-4.2-26.2 0L16.2 118.2A28.89 28.89 0 0 0 .4 144v224a29 29 0 0 0 15.8 25.8l226.7 115.1c8.2 4.2 17.9 4.2 26.2 0l226.7-115.1c9.7-4.9 15.8-14.9 15.8-25.8V144c0-10.9-6.1-20.9-15.8-25.8zM328.6 375.4c-2.6-2.3-5.5-4.3-8.6-6-2.6-1.5-5.5-2.9-8.7-4.3-3.2-1.4-6.6-2.1-10.1-2.1h-7.3v21.4c0 3.9.7 7.7 1.9 11.1a44 44 0 0 0 11.4 17.1h-69.8c4.6-5.1 8.3-10.9 11.2-17.1 1.4-3.1 2.1-6.5 2.1-10.3V363h-98v-42.8l95.8-184.3h-.1c1.3-2.2 1.9-5.1 2.2-8.6.6-7-.9-14-4.3-20.1-1.7-3.1-4.2-5.8-7.3-7.7h67c-2.4 1.9-4.6 4.5-6.3 7.3-1.5 2.2-2.8 5-4.1 8.1-1.3 3.2-1.9 6.6-1.9 10.3v194.9h6.1c4 0 7.8-.6 11.4-1.9 6.5-2.2 12.4-5.9 17.3-10.8v68z"/>
  <path fill="#2f2f2f" d="M250.6 320.2v-103l-53 103z"/>
  <path fill="#ffcb0a" d="M299.9 320.1h-6.1V125.2c0-3.7.7-7.1 1.9-10.3 1.3-3.1 2.6-5.8 4.1-8.1 1.7-2.8 3.9-5.3 6.3-7.3h-67c3 1.9 5.6 4.5 7.3 7.7 3.4 6.1 4.9 13.1 4.3 20.1-.3 3.4-1 6.3-2.2 8.6h.1l-95.8 184.3V363h98v22.2c0 3.8-.8 7.2-2.1 10.3-2.8 6.2-6.6 12-11.2 17.1h69.8a44 44 0 0 1-11.4-17.1 31.2 31.2 0 0 1-1.9-11.1V363h7.3c3.5 0 6.9.7 10.1 2.1 3.2 1.4 6.1 2.8 8.7 4.3 3.1 1.7 5.9 3.7 8.6 6v-68c-4.9 4.9-10.8 8.6-17.3 10.8-3.7 1.3-7.5 1.9-11.5 1.9zm-49.3.1h-53.1l53.1-103v103z"/>
</svg>