<svg xmlns="http://www.w3.org/2000/svg" xml:space="preserve" viewBox="0 0 187 33" width="187px" height="33px">
  <path fill="#ffcb0a" d="M16.32 22.94c-.37.14-.76.2-1.17.2h-.63V3.08c0-.38.07-.73.2-1.06.13-.32.27-.6.42-.83.18-.29.4-.55.65-.75h-6.9c.31.19.57.47.75.79.35.63.5 1.35.44 2.07-.03.35-.1.65-.23.88h.01L0 23.15v4.4h10.09v2.28c0 .39-.08.74-.22 1.06a6.85 6.85 0 0 1-1.15 1.76h7.18a4.46 4.46 0 0 1-1.17-1.76 3.3 3.3 0 0 1-.2-1.14v-2.2h.75c.36 0 .71.08 1.04.22.33.14.63.29.9.44.32.17.61.38.88.62v-7c-.5.5-1.11.88-1.78 1.11Zm-6.24.21H4.62l5.46-10.6v10.6Zm36.3-6.78c.5.5.98 1.03 1.43 1.6.45.58.86 1.2 1.21 1.85a9.75 9.75 0 0 1 1.15 4.82c0 5.43-2.41 8.14-7.22 8.14-1.23 0-2.31-.13-3.24-.4a5.14 5.14 0 0 1-3.7-3.84c-.3-1.04-.45-2.34-.45-3.9v-.88c0-.3-.08-.58-.22-.88-.3-.6-.71-1.13-1.2-1.58h7.31a6.16 6.16 0 0 0-1.19 1.63c-.14.29-.22.57-.22.83v1.19c0 1.11.27 1.95.8 2.5.52.57 1.18.84 1.98.84a2.7 2.7 0 0 0 1.97-.83c.56-.56.84-1.4.84-2.51s-.26-2.1-.79-2.93a14.46 14.46 0 0 0-1.94-2.4 1.78 1.78 0 0 0-.81-.28 8.24 8.24 0 0 0-2.18-.02 3.9 3.9 0 0 0-.1-2.14 5.37 5.37 0 0 0-.52-.94c-.96-1-1.8-2.12-2.5-3.37a9.21 9.21 0 0 1-1.06-4.6c0-2.84.6-4.9 1.8-6.2C38.73.78 40.56.13 42.99.13s4.22.65 5.44 1.94c1.21 1.3 1.82 3.36 1.82 6.2 0 .39.07.73.22 1.04.28.6.69 1.13 1.19 1.56H44.4c.49-.45.9-.98 1.19-1.58.14-.3.22-.6.22-.89v-.43c0-1.15-.26-2-.77-2.56s-1.16-.83-1.92-.83-1.44.28-1.96.83c-.5.56-.77 1.41-.77 2.56 0 .96.2 1.84.6 2.61.4.78.9 1.5 1.52 2.18a4 4 0 0 0 1.91.68c.42.05.93.03 1.52-.06-.05.74 0 1.49.13 2.22.06.34.16.6.3.77h.01Zm28.11-9.2a12.15 12.15 0 0 0-2.48-2.04 2.32 2.32 0 0 0-1.17-.38h-3.21v8.98a3.19 3.19 0 0 0 .77 1.87c.25.3.6.63 1.03.95-.32.29-.61.58-.88.88-.23.23-.44.5-.61.79s-.28.56-.31.79v11.27c0 .26.07.53.22.8.31.6.73 1.13 1.23 1.58h-7.43c.48-.47.89-1.01 1.2-1.61.14-.28.21-.57.21-.86V19.01c-.03-.24-.13-.5-.3-.8a5.26 5.26 0 0 0-.62-.79c-.27-.29-.56-.58-.88-.87a5.13 5.13 0 0 0 1.58-1.85c.15-.3.22-.63.22-.97V4.75h-3.03c-.36 0-.75.13-1.17.38-.9.57-1.72 1.26-2.44 2.05L57.65.44h15.6l1.23 6.73Zm21.83 8.43c-.23-.31-.41-.6-.53-.86a2.8 2.8 0 0 1-.26-1.01V7.08a7 7 0 0 0-2.06-4.92 6.67 6.67 0 0 0-4.9-2.07h-1.36a7.14 7.14 0 0 0-6.45 4.3 6.72 6.72 0 0 0-.55 2.7v6.64c-.01.36-.1.71-.26 1.03a4.93 4.93 0 0 1-1.54 1.79c.29.29.57.58.84.88a4.13 4.13 0 0 1 .96 1.54v6.82c0 1.86.74 3.65 2.07 4.95.65.63 1.4 1.15 2.23 1.52.83.37 1.73.57 2.7.57l1.32-.04a7.2 7.2 0 0 0 6.45-4.3c.36-.83.55-1.73.55-2.7v-6.82c.04-.28.14-.54.3-.77.45-.59.95-1.15 1.5-1.65a4.94 4.94 0 0 1-1.01-.95Zm-5.37-1.86a3.14 3.14 0 0 1-.81 1.86c-.31.36-.65.68-1.04.95.53.48 1.02 1.01 1.45 1.58.16.23.28.48.36.75v6.64c0 .65-.23 1.26-.69 1.83-.46.57-1.03.86-1.71.86l-1.33.04c-.68 0-1.24-.29-1.7-.88a2.94 2.94 0 0 1-.69-1.85v-6.55c.03-.24.13-.49.33-.77a21 21 0 0 1 1.47-1.66 4.4 4.4 0 0 1-1.54-1.8 2.74 2.74 0 0 1-.26-1.01V7.35c0-.64.23-1.24.69-1.82s1.02-.86 1.7-.86h1.37c.67 0 1.3.31 1.7.85.47.58.7 1.19.7 1.83v6.39Zm27.88 17.33c-.26-.33-.45-.7-.6-1.1l-1.49-4.49-1.5-4.44a7 7 0 0 0 3.3-5.9V7.39c0-.96-.19-1.87-.55-2.7a7.11 7.11 0 0 0-3.7-3.7 6.75 6.75 0 0 0-2.7-.55h-8.85c.24.36.46.69.66 1.02.18.29.34.6.48.94.15.34.22.67.22.99v10.34c-.03.35-.11.69-.26 1.01a4.4 4.4 0 0 1-1.54 1.8c.55.5 1.05 1.06 1.5 1.65.17.28.27.54.3.78v11.22c0 .2-.07.44-.22.72-.32.62-.7 1.2-1.14 1.74h7.17a7.23 7.23 0 0 1-1.16-1.87c-.13-.31-.2-.59-.2-.86v-7.87h2.38l2.5 7.87c.15.69.03 1.42-.33 2.03-.17.28-.4.52-.68.7h8.01a8.26 8.26 0 0 1-1.6-1.58Zm-4.87-15.93c0 .64-.23 1.2-.68 1.67-.45.47-1.02.7-1.69.7h-3.04V5.02h3.03a2.3 2.3 0 0 1 1.7.68c.45.45.7 1.06.68 1.69v7.75Zm21.86 17.46.01.01.01-.01h-.02zm6.6-.83c-.14-.24-.29-.5-.44-.79-.15-.3-.25-.58-.31-.84-.03-.09-.09-.46-.17-1.12l-.33-2.49-.45-3.27c-.16-1.2-.32-2.36-.5-3.5-.06-.44-.01-.85.15-1.24a5.6 5.6 0 0 1 1.39-1.98 3.84 3.84 0 0 1-1.85-1.45 4.2 4.2 0 0 1-.53-1.32l-1.53-10.51c-.07-.27-.03-.57.1-.9A6.3 6.3 0 0 1 139.16.4h-10.91c.48.59.89 1.25 1.19 1.95.15.34.19.67.13.99a35.3 35.3 0 0 0-.5 3.04c-.28 1.88-.63 4.33-1.04 7.35a2.4 2.4 0 0 1-.31.96c-.14.3-.39.61-.72.93-.43.38-.91.71-1.43.97.29.35.57.7.83 1.05.21.34.4.69.57 1.06.18.39.24.78.18 1.19l-1.44 10.51c-.06.24-.15.48-.29.73-.25.55-.6 1.05-1.03 1.47h7.17a7.72 7.72 0 0 1-1.17-2 2.1 2.1 0 0 1-.1-1.08l.48-3.6h5.85l.18 1.14c.06.32.11.7.17 1.12l.18 1.25c.06.42.02.82-.11 1.2a5.26 5.26 0 0 1-1.2 1.97h7.2a4.98 4.98 0 0 1-.62-.83Zm-11-10.3 2.3-16.14L136 21.47h-4.58Zm25-5.23h7.48v9.46a7.05 7.05 0 0 1-6.95 7.04h-1.32a7.04 7.04 0 0 1-6.95-7.04v-6.73c-.03-.24-.14-.5-.31-.77-.45-.59-.95-1.15-1.5-1.65a5.07 5.07 0 0 0 1.59-1.85c.15-.3.22-.63.22-.97V7.04a6.85 6.85 0 0 1 2.04-4.95 7.4 7.4 0 0 1 2.2-1.52 6.45 6.45 0 0 1 2.7-.57h1.37c.97 0 1.87.19 2.7.57a7.19 7.19 0 0 1 4.21 6.47v1.63c0 .41.07.8.22 1.14.28.66.68 1.26 1.19 1.76h-7.35c.51-.44.92-1 1.19-1.62.14-.33.22-.68.22-1.06V7.04a2.4 2.4 0 0 0-.7-1.74 2.22 2.22 0 0 0-1.68-.72h-1.36c-.68 0-1.24.24-1.7.72s-.68 1.07-.68 1.74v6.69c0 .34.07.67.22.97.37.73.91 1.37 1.58 1.85-.55.5-1.05 1.06-1.5 1.65-.17.28-.27.53-.3.77v6.73c0 .67.23 1.25.68 1.74.46.48 1.02.72 1.7.72h1.32c.67 0 1.23-.24 1.69-.72a2.5 2.5 0 0 0 .68-1.74v-5.03c-.4-.03-.79.02-1.14.13s-.66.25-.93.38-.47.26-.61.4c-.15.13-.22.2-.22.24v-5.6.02Zm27.94 11.63a6.2 6.2 0 0 0 1.94-1.38l-1.23 6.16h-13.69c.23-.35.46-.7.66-1.06.18-.32.34-.66.48-1.03s.22-.73.22-1.08V18.97c-.03-.24-.13-.5-.3-.78-.45-.59-.95-1.15-1.5-1.65a4.7 4.7 0 0 0 1.54-1.8c.15-.32.23-.66.26-1.01V3.13c0-.3-.07-.6-.22-.93-.32-.64-.7-1.24-1.14-1.8h13.6l1.23 6.16c-.35-.3-.7-.56-1.01-.8-.33-.2-.66-.39-1.02-.57a4.08 4.08 0 0 0-1.14-.35h-5.85v9.86h4.31c.32 0 .63-.07.92-.2.6-.26 1.13-.66 1.54-1.17v7.17a3.58 3.58 0 0 0-1.39-1.14c-.34-.15-.7-.23-1.07-.22h-4.31v9.07h5.98c.41-.03.81-.14 1.2-.33Z"/>
</svg>