<?xml version="1.0" standalone="no"?>
<!DOCTYPE svg PUBLIC "-//W3C//DTD SVG 20010904//EN"
 "http://www.w3.org/TR/2001/REC-SVG-20010904/DTD/svg10.dtd">
<svg version="1.0" xmlns="http://www.w3.org/2000/svg"
 width="700.000000pt" height="700.000000pt" viewBox="0 0 700.000000 700.000000"
 preserveAspectRatio="xMidYMid meet">
<metadata>
Created by potrace 1.14, written by Peter Selinger 2001-2017
</metadata>
<g transform="translate(0.000000,700.000000) scale(0.100000,-0.100000)"
fill="#000000" stroke="none">
<path d="M3395 6986 c-22 -7 -105 -45 -185 -85 -182 -92 -753 -382 -1095 -556
-143 -73 -415 -211 -605 -308 -830 -420 -1054 -534 -1190 -604 -188 -96 -245
-148 -290 -268 l-23 -60 -1 -1585 c-1 -1703 -3 -1637 49 -1740 40 -78 104
-131 243 -202 240 -123 758 -386 1167 -593 226 -114 518 -263 650 -330 771
-393 1239 -627 1277 -638 59 -18 133 -20 193 -7 48 11 206 88 785 382 848 432
1029 524 1955 993 248 126 466 238 485 250 88 55 160 161 177 261 5 27 8 756
7 1619 -1 1231 -4 1580 -13 1615 -39 137 -102 202 -290 298 -152 78 -558 284
-1126 572 -209 106 -483 245 -610 310 -126 65 -423 215 -660 335 -236 120
-464 236 -505 257 -137 73 -189 90 -275 94 -48 2 -96 -2 -120 -10z"/>
</g>
</svg>
